#!OML:ASF F:\VICON\USERDATA\INSTALL\rory3\rory3.ASF
:FULLY-SPECIFIED
:DEGREES
81
root -0.12504836406065206 18.01947596628843 29.390360145792116 -2.3249679156545615 -3.10703928592936 -7.7630593331864475
lfemur -25.07027162205736 -0.3193833552858951 -10.667354088752376
ltibia 31.157386433449215
lfoot -7.4154277591554045 -1.67738624202523
ltoes -7.255775235240343
rfemur -1.4530297804156032 7.0799411352104205 34.38683462840612
rtibia 27.23991150024198
rfoot -13.33983899013927 -6.448056591260382
rtoes 7.601966171265225
lowerback 10.433925386071158 2.051227724753961 6.228467485499627
upperback 0.7601199459178987 3.5977315088214463 2.3131665695051558
thorax -5.201958715086642 1.6515675894089559 -1.6307543514940734
lowerneck -16.233508588453606 -2.8601008144622964 -1.5296046814543365
upperneck 21.1530200145692 -3.63074331036755 0.34770643439582016
head 9.444042307686654 -1.7589043111334604 -0.060771039737077176
lclavicle -1.9541392164301776e-15 9.059422772832098e-16
lhumerus -35.592321623441435 3.9208346049287544 82.18986932389818
lradius 24.893618504803346
lwrist 6.310857884674103
lhand -27.565533428198744 21.61655541629029
lfingers 7.12502
lthumb -0.8609595435818815 52.22686543814619
rclavicle -1.9536117274436744e-15 9.072102034099818e-16
rhumerus -26.31319159973269 -11.783241027606042 -81.80610567438033
rradius 26.984079960688536
rwrist 2.761310297176942
rhand -17.795083873600863 19.75558691234615
rfingers 7.12502
rthumb 8.34668624876911 -9.647057106814813
82
root -0.08481211258932236 17.96987859600403 29.738722755013143 -1.8339488445622916 -3.9485811093116463 -8.219451890701523
lfemur -24.94110149221832 -1.7505208020799925 -9.57721525285627
ltibia 21.5163305237755
lfoot -7.6537591476884845 0.364732871436247
ltoes -5.890859746740823
rfemur 0.6321728391016421 6.939528907949265 35.11176488106465
rtibia 26.717038058442135
rfoot -13.602560864546655 -6.554787161287553
rtoes 6.705045914584115
lowerback 10.100944463700836 2.289348735338144 6.890499718441957
upperback 0.7778157035992554 3.921634188946943 2.3327755531761323
thorax -5.016314755097443 1.768321056171302 -2.028454799147515
lowerneck -16.31181965531373 -2.83564704086139 -1.452912134862943
upperneck 21.062628816472316 -3.5860695521472383 0.2371674700812958
head 9.392573745788333 -1.7482138814536186 -0.10942589937736619
lclavicle -1.9553151566363796e-15 9.04859445424095e-16
lhumerus -35.4614166916238 4.099067841549231 82.15128982411456
lradius 24.502694633024923
lwrist 6.116638712747683
lhand -27.130072014627327 22.842469110175845
lfingers 7.12502
lthumb -0.5050512530299405 53.17219023425281
rclavicle -1.9543214362655706e-15 9.064209982644266e-16
rhumerus -25.602392699356013 -11.094195282264458 -81.97267454660059
rradius 27.763075179486748
rwrist 2.032260339317041
rhand -17.878870236184017 21.178875150601876
rfingers 7.12502
rthumb 8.293852100626014 -8.426101646457484
83
root -0.0343614902028932 17.922009298737027 30.287890616968106 -1.2522628486798184 -4.7518753404476275 -8.33011110358185
lfemur -23.595364585150662 -3.8427618018086456 -8.428003089366058
ltibia 11.768144631616224
lfoot -7.438640917424057 2.484727231919453
ltoes -6.934797939666583
rfemur 3.0434471927489533 7.021275880440726 35.4434841960328
rtibia 25.729633996590117
rfoot -13.616767293683539 -6.566243299910803
rtoes 5.325022972375478
lowerback 9.676052970130344 2.559141005938024 7.246007422649472
upperback 0.7033844580153041 4.369185049747333 2.311942885523045
thorax -4.830168225513247 1.996513316985094 -2.32309889512727
lowerneck -16.469161651664486 -2.80947046042248 -1.3688410592709856
upperneck 21.071876144663726 -3.545922139248814 0.18191710680711726
head 9.399187378204092 -1.7347416849794164 -0.15021714027624902
lclavicle -1.9546849462549633e-15 9.054404572799714e-16
lhumerus -35.327914249370245 4.1602467608074924 82.16602239739036
lradius 24.180520844968527
lwrist 5.44534806988265
lhand -27.224324757293747 22.579913980952842
lfingers 7.12502
lthumb -0.5913935445200232 53.105123659982794
rclavicle -1.9540101965426817e-15 9.0669331955845e-16
rhumerus -25.029538121907343 -10.73062655720111 -82.00051944932413
rradius 28.16397190756307
rwrist 1.7752602846351078
rhand -17.933986955236083 22.75448684496205
rfingers 7.12502
rthumb 8.186997229871997 -7.243302538026489
84
root 0.02402045707144629 17.889592443854813 30.80656697101424 -0.3441797515771934 -5.1293140191344175 -8.419071674811974
lfemur -22.55040568174565 -5.107668613614061 -7.930333045901456
ltibia 5.795950381206087
lfoot -6.684176240043736 3.63731286636549
ltoes -7.518231851323767
rfemur 5.244776589499978 6.787814550087868 35.609674993099155
rtibia 24.455478243631163
rfoot -13.685998161764246 -6.909670601957379
rtoes 4.645024939376179
lowerback 8.993656958336468 2.6524444773221694 7.402740472749949
upperback 0.5554112283857617 4.3058332830608075 2.3193921164879345
thorax -4.604315766840004 1.986950050334461 -2.5409437417383063
lowerneck -16.728996570785828 -2.8223789231998904 -1.3888195795940113
upperneck 21.134976248356626 -3.5683884426168775 0.19938972219923456
head 9.450431584103786 -1.7435158470799625 -0.1687031601012278
lclavicle -1.9537893406491302e-15 9.062655818217867e-16
lhumerus -35.31343253006922 4.4333578453917815 82.06873442764484
lradius 24.24061754855351
lwrist 4.170683122180555
lhand -26.820466353104667 23.947107174493368
lfingers 7.12502
lthumb -0.42023015014981757 54.08143323409625
rclavicle -1.952660490821748e-15 9.080858168932692e-16
rhumerus -24.568090309844415 -10.636207543948638 -81.96456564980143
rradius 28.542372247689446
rwrist 1.6792587660884433
rhand -18.07960849791684 23.43258246990165
rfingers 7.12502
rthumb 7.9393784188082455 -6.7042071938684495
